HIERARCHY
ROOT Hips
{
	OFFSET 0.000000 0.000000 0.000000
	CHANNELS 6 Xposition Yposition Zposition Xrotation Yrotation Zrotation
	JOINT LeftUpLeg_virtual
	{
		OFFSET 0.000000 0.000000 0.000000
		CHANNELS 3 Xrotation Yrotation Zrotation
		JOINT LeftUpLeg
		{
			OFFSET 13.026900 -6.336304 -1.092800
			CHANNELS 3 Xrotation Yrotation Zrotation
			JOINT LeftLeg
			{
				OFFSET 0.524474 -46.096886 9.782700
				CHANNELS 3 Xrotation Yrotation Zrotation
				JOINT LeftFoot
				{
					OFFSET -0.524474 -53.427422 -12.948200
					CHANNELS 3 Xrotation Yrotation Zrotation
					JOINT LeftToeBase
					{
						OFFSET 0.192200 -14.009700 16.364100
						CHANNELS 3 Xrotation Yrotation Zrotation
						JOINT LeftToe_End
						{
							OFFSET -1.784700 -0.561700 9.474800
							CHANNELS 3 Xrotation Yrotation Zrotation
							End Site
							{
								OFFSET 0 0 0
							}
						}
					}
				}
			}
		}
	}
	JOINT RightUpLeg_virtual
	{
		OFFSET 0.000000 0.000000 0.000000
		CHANNELS 3 Xrotation Yrotation Zrotation
		JOINT RightUpLeg
		{
			OFFSET -12.883000 -6.336304 -1.092800
			CHANNELS 3 Xrotation Yrotation Zrotation
			JOINT RightLeg
			{
				OFFSET -0.524587 -46.096825 9.782800
				CHANNELS 3 Xrotation Yrotation Zrotation
				JOINT RightFoot
				{
					OFFSET 0.524587 -53.427383 -12.948300
					CHANNELS 3 Xrotation Yrotation Zrotation
					JOINT RightToeBase
					{
						OFFSET -0.192200 -14.009700 16.364100
						CHANNELS 3 Xrotation Yrotation Zrotation
						JOINT RightToe_End
						{
							OFFSET 1.784700 -0.561700 9.474800
							CHANNELS 3 Xrotation Yrotation Zrotation
							End Site
							{
								OFFSET 0 0 0
							}
						}
					}
				}
			}
		}
	}
	JOINT Spine_virtual
	{
		OFFSET 0.000000 0.000000 0.000000
		CHANNELS 3 Xrotation Yrotation Zrotation
		JOINT Spine
		{
			OFFSET 0.072000 7.257294 -0.789700
			CHANNELS 3 Xrotation Yrotation Zrotation
			JOINT Spine1
			{
				OFFSET 0.000000 12.508769 -0.658067
				CHANNELS 3 Xrotation Yrotation Zrotation
				JOINT Spine1_split
				{
					OFFSET 0.000000 12.508769 -0.658067
					CHANNELS 3 Xrotation Yrotation Zrotation
					JOINT Spine2
					{
						OFFSET 0.000000 12.508769 -0.658067
						CHANNELS 3 Xrotation Yrotation Zrotation
						JOINT Neck_virtual
						{
							OFFSET 0.000000 0.000000 0.000000
							CHANNELS 3 Xrotation Yrotation Zrotation
							JOINT Neck
							{
								OFFSET 0.000000 14.033295 7.520400
								CHANNELS 3 Xrotation Yrotation Zrotation
								JOINT Head
								{
									OFFSET 0.000000 8.198502 5.703100
									CHANNELS 3 Xrotation Yrotation Zrotation
									JOINT HeadTop_End
									{
										OFFSET 0.000000 17.760803 13.332701
										CHANNELS 3 Xrotation Yrotation Zrotation
										End Site
										{
											OFFSET 0 0 0
										}
									}
								}
							}
						}
						JOINT LeftShoulder_virtual
						{
							OFFSET 0.000000 0.000000 0.000000
							CHANNELS 3 Xrotation Yrotation Zrotation
							JOINT LeftShoulder
							{
								OFFSET 6.292450 5.785301 -0.669000
								CHANNELS 3 Xrotation Yrotation Zrotation
								JOINT LeftShoulder_split
								{
									OFFSET 6.292450 5.785301 -0.669000
									CHANNELS 3 Xrotation Yrotation Zrotation
									JOINT LeftArm
									{
										OFFSET 13.907140 -6.093903 1.965100
										CHANNELS 3 Xrotation Yrotation Zrotation
										JOINT LeftForeArm
										{
											OFFSET 34.140198 0.000000 0.000000
											CHANNELS 3 Xrotation Yrotation Zrotation
											JOINT LeftHand
											{
												OFFSET 40.960209 0.000000 0.000000
												CHANNELS 3 Xrotation Yrotation Zrotation
												End Site
												{
													OFFSET 0 0 0
												}
											}
										}
									}
								}
							}
						}
						JOINT RightShoulder_virtual
						{
							OFFSET 0.000000 0.000000 0.000000
							CHANNELS 3 Xrotation Yrotation Zrotation
							JOINT RightShoulder
							{
								OFFSET -6.292450 5.785301 -0.669000
								CHANNELS 3 Xrotation Yrotation Zrotation
								JOINT RightShoulder_split
								{
									OFFSET -6.292450 5.785301 -0.669000
									CHANNELS 3 Xrotation Yrotation Zrotation
									JOINT RightArm
									{
										OFFSET -13.907140 -6.093903 1.965100
										CHANNELS 3 Xrotation Yrotation Zrotation
										JOINT RightForeArm
										{
											OFFSET -34.140198 0.000000 0.000000
											CHANNELS 3 Xrotation Yrotation Zrotation
											JOINT RightHand
											{
												OFFSET -40.960209 0.000000 0.000000
												CHANNELS 3 Xrotation Yrotation Zrotation
												End Site
												{
													OFFSET 0 0 0
												}
											}
										}
									}
								}
							}
						}
					}
				}
			}
		}
	}
}
MOTION
Frames: 7
Frame Time: 0.03333333
-0.125847 104.669785 0.789246 0.000000 0.000000 0.000000 -3.858850 -15.987871 -2.122013 -34.680091 17.160509 12.738436 45.148145 -0.970870 8.947805 -10.744616 2.675284 -8.617808 -1.092580 -0.269435 -1.037868 0.000000 0.000000 0.000000 -4.514548 -14.583958 -1.862639 -29.935476 -22.555892 -12.927284 45.542489 -3.620961 -11.346217 -9.768893 -1.575706 12.880514 -4.133777 0.724807 0.480630 0.000000 0.000000 0.000000 -2.939305 -17.529489 -2.101514 4.312873 2.930571 2.352544 2.832889 2.031693 -0.047083 1.673440 -0.459711 0.122095 0.000000 0.000000 0.000000 2.881790 1.799106 -0.041596 1.040902 -0.177272 4.533253 0.259776 9.665694 1.393167 0.000000 0.000000 0.000000 2.750296 1.973404 -0.221429 -0.021860 -4.055136 17.246052 -1.780598 -0.112332 -0.528312 -66.853413 -43.246705 -62.482051 -0.938413 -34.194352 0.743449 0.000000 0.000000 0.000000 3.192289 1.925016 -0.092931 -0.357208 -3.392608 -5.142253 0.735065 0.726464 0.636820 -104.169906 58.826869 95.705499 -1.539072 29.822853 0.431737 0.000000 0.000000 0.000000 
-0.148664 104.605103 0.778225 0.000000 0.000000 0.000000 -3.782136 -16.017386 -2.089080 -34.750210 17.203104 12.658732 45.082466 -0.979145 8.974286 -10.695894 2.622937 -8.649310 -1.112120 -0.254487 -1.044954 0.000000 0.000000 0.000000 -4.496594 -14.532354 -1.834814 -29.915293 -22.573884 -12.948277 45.841463 -3.677569 -11.299801 -9.985351 -1.584895 12.891226 -3.728362 0.712931 0.426298 0.000000 0.000000 0.000000 -2.931331 -17.380972 -2.171652 4.315046 2.901517 2.291102 2.849834 2.023095 -0.077882 1.559973 -0.141017 -0.009721 0.000000 0.000000 0.000000 2.801833 1.777059 -0.066026 0.893519 -0.297914 4.564480 0.465136 9.708981 1.373495 0.000000 0.000000 0.000000 2.760602 1.952847 -0.234918 -0.075649 -3.909983 17.169883 -1.786875 -0.107188 -0.416925 -66.794196 -43.460511 -62.579272 -0.893855 -34.491964 0.802012 0.000000 0.000000 0.000000 3.256986 1.926755 -0.110626 -0.335985 -3.293786 -5.239326 0.741623 0.691430 0.607450 -104.152660 59.345390 95.872305 -1.407497 29.551599 0.397195 0.000000 0.000000 0.000000 
-0.154523 104.540222 0.766750 0.000000 0.000000 0.000000 -3.690226 -16.112158 -2.018381 -34.860394 17.306772 12.537348 45.026905 -0.986382 9.066630 -10.520980 2.509471 -8.788964 -1.077726 -0.227650 -1.072144 0.000000 0.000000 0.000000 -4.466320 -14.663375 -1.772612 -29.962749 -22.587550 -12.961199 46.018625 -3.772042 -11.241815 -10.001735 -1.664317 12.920595 -3.620688 0.663949 0.356260 0.000000 0.000000 0.000000 -2.950165 -17.214951 -2.223018 4.239933 2.836241 2.178534 2.803530 2.052737 -0.121081 1.320985 -0.128341 -0.131431 0.000000 0.000000 0.000000 2.753435 1.799822 -0.113411 0.787292 -0.500452 4.764569 0.890955 9.555729 1.534930 0.000000 0.000000 0.000000 2.758321 1.974212 -0.270238 -0.158267 -3.618679 17.001517 -1.704710 -0.093079 -0.405858 -66.603681 -43.947380 -62.618887 -0.927826 -34.971361 0.751740 0.000000 0.000000 0.000000 3.288808 1.961355 -0.140906 -0.267151 -3.066488 -5.390933 0.553095 0.630108 0.401418 -103.915680 60.021052 96.177314 -1.237051 29.344651 0.321213 0.000000 0.000000 0.000000 
-0.149905 104.509254 0.766651 0.000000 0.000000 0.000000 -3.589165 -16.306863 -1.934890 -34.982883 17.470534 12.449576 44.937450 -0.972543 9.197033 -10.299579 2.382296 -8.965897 -1.004976 -0.189249 -1.109349 0.000000 0.000000 0.000000 -4.366334 -14.970028 -1.690004 -30.034726 -22.564723 -12.917134 46.001860 -3.866428 -11.196840 -9.808290 -1.767411 12.930476 -3.823209 0.584641 0.330347 0.000000 0.000000 0.000000 -2.971016 -17.160365 -2.238497 4.087525 2.737344 2.057221 2.700768 2.094331 -0.170522 1.016147 -0.386799 -0.087136 0.000000 0.000000 0.000000 2.730008 1.851046 -0.170640 0.725627 -0.739528 5.081374 1.389845 9.315178 1.822858 0.000000 0.000000 0.000000 2.729916 2.020663 -0.322734 -0.256542 -3.225808 16.726882 -1.509739 -0.110614 -0.482257 -66.350500 -44.709742 -62.719455 -0.995514 -35.403452 0.598441 0.000000 0.000000 0.000000 3.279717 2.008878 -0.177547 -0.158539 -2.758279 -5.601147 0.354068 0.530951 0.197045 -103.496702 60.676546 96.552299 -1.057779 29.298691 0.221217 0.000000 0.000000 0.000000 
-0.150145 104.504089 0.783371 0.000000 0.000000 0.000000 -3.510726 -16.609046 -1.869073 -35.114501 17.652960 12.419161 44.851158 -0.923196 9.341739 -10.054862 2.301177 -9.093696 -0.910103 -0.140997 -1.145177 0.000000 0.000000 0.000000 -4.177031 -15.362907 -1.614743 -30.093226 -22.466352 -12.780864 45.846265 -3.983369 -11.171870 -9.542143 -1.875989 12.749333 -3.927985 0.490501 0.399821 0.000000 0.000000 0.000000 -2.890442 -17.264410 -2.207970 3.884676 2.629965 1.956837 2.564992 2.126142 -0.216267 0.907018 -0.708991 0.033540 0.000000 0.000000 0.000000 2.713155 1.895177 -0.222398 0.687737 -0.966799 5.390565 1.772309 9.089752 2.153549 0.000000 0.000000 0.000000 2.666691 2.062372 -0.377580 -0.367800 -2.781070 16.400534 -1.422957 -0.128899 -0.639949 -66.136182 -45.682006 -62.922694 -1.027951 -35.713512 0.424459 0.000000 0.000000 0.000000 3.219508 2.044424 -0.210905 -0.030455 -2.412417 -5.855336 0.174279 0.393595 0.001919 -103.056824 61.156701 96.892060 -0.912831 29.414281 0.172874 0.000000 0.000000 0.000000 
-0.131385 104.521637 0.771152 0.000000 0.000000 0.000000 -3.478479 -16.980159 -1.839130 -35.200715 17.824046 12.430930 44.825254 -0.827701 9.474301 -9.842704 2.295325 -9.097573 -0.811318 -0.092602 -1.180891 0.000000 0.000000 0.000000 -3.976114 -15.753372 -1.572013 -30.235055 -22.313857 -12.610641 45.692265 -4.142831 -11.162570 -9.291672 -1.966926 12.371529 -3.782018 0.401966 0.555074 0.000000 0.000000 0.000000 -2.726086 -17.554518 -2.147664 3.713057 2.531764 1.881676 2.414558 2.130714 -0.258215 1.054985 -1.002170 0.200098 0.000000 0.000000 0.000000 2.690859 1.914991 -0.251309 0.645933 -1.155224 5.613897 1.934136 8.964056 2.433956 0.000000 0.000000 0.000000 2.572648 2.072620 -0.423852 -0.484292 -2.312183 16.058844 -1.322550 0.016244 -0.820342 -66.077374 -46.813321 -63.273711 -0.936636 -35.922676 0.305398 0.000000 0.000000 0.000000 3.111384 2.051333 -0.233750 0.086653 -2.103607 -6.181691 0.094061 0.350742 -0.160064 -102.579264 61.313693 96.946291 -0.813588 29.380018 0.200058 0.000000 0.000000 0.000000 
-0.090660 104.551590 0.657581 0.000000 0.000000 0.000000 -3.487456 -17.293380 -1.835924 -35.275062 18.009197 12.460953 44.910054 -0.661280 9.563367 -9.720717 2.361805 -8.961778 -0.738785 -0.051104 -1.209702 0.000000 0.000000 0.000000 -3.820200 -16.080188 -1.555490 -30.515048 -22.159709 -12.491875 45.687634 -4.288704 -11.177503 -9.098589 -1.976952 12.027000 -3.560042 0.338067 0.698264 0.000000 0.000000 0.000000 -2.491412 -17.964764 -2.084444 3.625765 2.491901 1.830670 2.271167 2.118172 -0.284832 1.159017 -1.180699 0.326034 0.000000 0.000000 0.000000 2.648564 1.907710 -0.253051 0.583642 -1.275580 5.688474 1.918423 8.973450 2.596394 0.000000 0.000000 0.000000 2.472394 2.060836 -0.450315 -0.589737 -1.850504 15.741423 -1.162423 0.318681 -1.020591 -66.104142 -48.041628 -63.733820 -0.621780 -35.977803 0.321376 0.000000 0.000000 0.000000 2.962865 2.036382 -0.244772 0.150218 -1.869217 -6.561383 0.203414 0.524787 -0.244450 -101.989218 61.109798 96.574620 -0.745123 28.984106 0.290347 0.000000 0.000000 0.000000 
